<svg width="390" height="305" viewBox="0 0 390 305" fill="none" xmlns="http://www.w3.org/2000/svg">
<g clip-path="url(#clip0_15_215)">
<path d="M269.88 27.328L52.8002 73.2427C47.436 74.3786 42.3983 76.7112 38.0638 80.066C33.7292 83.4209 30.21 87.7111 27.7693 92.616C25.3286 97.5209 24.0295 102.913 23.9691 108.391C23.9088 113.868 25.0888 119.287 27.4209 124.245L95.8461 269.62C99.7092 277.826 106.506 284.293 114.899 287.748C123.293 291.203 132.677 291.397 141.206 288.292L321.261 222.784C329.705 219.712 336.711 213.626 340.928 205.7C345.146 197.773 346.276 188.568 344.1 179.858L312.706 54.0765C310.426 44.9456 304.687 37.0549 296.699 32.0657C288.711 27.0764 279.097 25.378 269.88 27.328Z" fill="#04B600"/>
<path opacity="0.7" d="M269.88 27.328L52.8002 73.2427C47.436 74.3786 42.3983 76.7112 38.0638 80.066C33.7292 83.4209 30.21 87.7111 27.7693 92.616C25.3286 97.5209 24.0295 102.913 23.9691 108.391C23.9088 113.868 25.0888 119.287 27.4209 124.245L95.8461 269.62C99.7092 277.826 106.506 284.293 114.899 287.748C123.293 291.203 132.677 291.397 141.206 288.292L321.261 222.784C329.705 219.712 336.711 213.626 340.928 205.7C345.146 197.773 346.276 188.568 344.1 179.858L312.706 54.0765C310.426 44.9456 304.687 37.0549 296.699 32.0657C288.711 27.0764 279.097 25.378 269.88 27.328Z" fill="white"/>
<path d="M119.636 60.1961L109.241 68.3265L121.856 84.4211L132.252 76.2908L119.636 60.1961Z" fill="#263238" stroke="#263238" stroke-linejoin="round"/>
<path d="M118.804 51.6443L101.129 65.4681L110.082 76.8895L127.757 63.0657L118.804 51.6443Z" fill="#04B600" stroke="#263238" stroke-linejoin="round"/>
<path d="M104.945 63.0252L111.51 71.4005" stroke="#263238" stroke-linejoin="round"/>
<path d="M110.93 58.3465L117.494 66.7157" stroke="#263238" stroke-linejoin="round"/>
<path d="M109.299 62.8361L115.864 71.2053" stroke="#263238" stroke-linejoin="round"/>
<path d="M254.501 76.3024L264.896 84.4327L277.511 68.3381L267.116 60.2077L254.501 76.3024Z" fill="#263238" stroke="#263238" stroke-linejoin="round"/>
<path d="M259.006 63.0628L276.68 76.8866L285.633 65.4653L267.958 51.6414L259.006 63.0628Z" fill="#04B600" stroke="#263238" stroke-linejoin="round"/>
<path d="M281.825 63.0252L275.26 71.4005" stroke="#263238" stroke-linejoin="round"/>
<path d="M275.84 58.3465L269.275 66.7157" stroke="#263238" stroke-linejoin="round"/>
<path d="M277.471 62.8361L270.906 71.2053" stroke="#263238" stroke-linejoin="round"/>
<path d="M203.293 31.9213H181.883V53.3384H203.293V31.9213Z" fill="#263238" stroke="#263238" stroke-linejoin="round"/>
<path d="M208.08 19.6359H177.095V41.053H208.08V19.6359Z" fill="#04B600" stroke="#263238" stroke-linejoin="round"/>
<path d="M179.88 19.5627V37.4113" stroke="#263238" stroke-linejoin="round"/>
<path d="M182.432 38.2104V28.6456" stroke="#263238" stroke-linejoin="round"/>
<path d="M185.144 20.0446V33.5866" stroke="#263238" stroke-linejoin="round"/>
<path d="M187.855 26.5777V39.0095" stroke="#263238" stroke-linejoin="round"/>
<path d="M192.008 20.2032V34.2271" stroke="#263238" stroke-linejoin="round"/>
<path d="M271.781 240.578C315.521 196.886 315.521 126.047 271.781 82.3553C228.042 38.6634 157.126 38.6634 113.386 82.3553C69.6464 126.047 69.6464 196.886 113.386 240.578C157.126 284.27 228.042 284.27 271.781 240.578Z" fill="#263238" stroke="#263238" stroke-linejoin="round"/>
<path d="M262.497 231.304C301.11 192.734 301.11 130.199 262.497 91.629C223.885 53.0588 161.282 53.0589 122.67 91.629C84.0575 130.199 84.0575 192.734 122.67 231.304C161.282 269.874 223.885 269.874 262.497 231.304Z" fill="white" stroke="#263238" stroke-linejoin="round"/>
<path d="M257.018 225.83C292.604 190.283 292.604 132.65 257.018 97.1027C221.432 61.5555 163.736 61.5555 128.149 97.1027C92.5635 132.65 92.5635 190.283 128.149 225.83C163.736 261.377 221.432 261.377 257.018 225.83Z" fill="white" stroke="#263238" stroke-linejoin="round"/>
<path d="M192.588 70.4428V82.7831" stroke="#263238" stroke-linejoin="round"/>
<path d="M192.588 240.059V252.4" stroke="#263238" stroke-linejoin="round"/>
<path d="M283.663 161.424H271.309" stroke="#263238" stroke-linejoin="round"/>
<path d="M113.861 161.424H101.507" stroke="#263238" stroke-linejoin="round"/>
<path d="M256.989 97.0937L248.25 105.817" stroke="#263238" stroke-linejoin="round"/>
<path d="M136.919 217.026L128.187 225.755" stroke="#263238" stroke-linejoin="round"/>
<path d="M128.187 97.0937L136.919 105.817" stroke="#263238" stroke-linejoin="round"/>
<path d="M248.25 217.026L256.989 225.755" stroke="#263238" stroke-linejoin="round"/>
<path d="M215.066 152.756L216.489 158.179L123.363 180.615L122.935 178.986L215.066 152.756Z" fill="#263238" stroke="#263238" stroke-linejoin="round"/>
<path d="M196.16 161.467C196.16 160.761 195.951 160.071 195.558 159.484C195.166 158.898 194.608 158.44 193.955 158.17C193.302 157.9 192.584 157.829 191.891 157.967C191.198 158.105 190.561 158.445 190.062 158.944C189.562 159.443 189.222 160.079 189.084 160.771C188.946 161.463 189.017 162.181 189.287 162.833C189.558 163.485 190.016 164.042 190.603 164.434C191.191 164.826 191.881 165.035 192.588 165.035C193.057 165.035 193.522 164.943 193.955 164.764C194.388 164.585 194.782 164.322 195.114 163.99C195.446 163.659 195.709 163.266 195.888 162.833C196.068 162.4 196.16 161.936 196.16 161.467Z" fill="white" stroke="#263238" stroke-linejoin="round"/>
<path d="M158.275 229.104L152.687 225.444C152.687 225.444 149.224 228.793 149.023 229.104C148.821 229.415 139.307 230.549 137.42 230.549C135.533 230.549 134.184 230.104 133.958 231.001C133.732 231.898 136.639 233.898 140.883 235.015C142.556 235.454 144.999 236.332 147.405 237.192L147.026 238.138C147.026 238.138 153.389 240.48 154.397 240.578C154.739 240.621 155.069 240.102 155.356 239.407C156.351 238.51 158.275 229.104 158.275 229.104Z" fill="#263238" stroke="#263238" stroke-linejoin="round"/>
<path d="M252.891 181.365L254.235 187.88C254.235 187.88 259.053 187.941 259.45 187.88C259.847 187.819 267.388 193.693 268.714 195.029C270.039 196.365 270.692 197.622 271.486 197.146C272.28 196.67 271.626 193.205 269.404 189.423C268.524 187.935 267.407 185.592 266.314 183.287L267.248 182.884C267.248 182.884 264.384 176.741 263.749 175.955C263.529 175.686 262.931 175.82 262.241 176.107C260.873 176.064 252.891 181.365 252.891 181.365Z" fill="#263238" stroke="#263238" stroke-linejoin="round"/>
<path d="M187.672 163.937C187.672 163.937 185.883 165.054 186.109 165.725C186.335 166.396 187.782 167.506 187.782 167.506C187.782 167.506 164.174 187.837 163.728 189.399C163.282 190.96 149.011 225.419 149.011 225.419L159.954 230.909L174.561 196.225L199.397 180.365C199.397 180.365 217.35 205.875 219.14 205.655C220.929 205.436 257.661 188.344 257.661 188.344L254.076 179.95L223.042 190.564L213.351 168.848C213.351 168.848 215.695 164.828 214.248 160.918C212.801 157.008 208.551 150.987 208.551 150.987L187.672 163.937Z" fill="#263238" stroke="#263238" stroke-linejoin="round"/>
<path d="M199.391 180.334C199.391 180.334 211.286 173.222 212.294 172.215" stroke="#999999" stroke-linejoin="round"/>
<path d="M192.899 163.828C194.272 162.605 195.734 161.486 197.272 160.479C199.617 159.143 204.978 159.362 204.978 159.362" stroke="#999999" stroke-linejoin="round"/>
<path d="M189.119 167.17C189.119 167.17 189.913 166.438 191.037 165.444" stroke="#999999" stroke-linejoin="round"/>
<path d="M207.543 158.136C207.543 158.136 203.079 157.575 199.604 158.472" stroke="#999999" stroke-linejoin="round"/>
<path d="M202.181 179.218C202.181 179.218 211.451 180.895 214.468 180.67" stroke="#999999" stroke-linejoin="round"/>
<path d="M213.454 186.385C214.175 186.599 214.889 186.776 215.586 186.916" stroke="#999999" stroke-linejoin="round"/>
<path d="M202.072 181.231C205.075 183.002 208.225 184.51 211.488 185.739" stroke="#999999" stroke-linejoin="round"/>
<path d="M185.877 161.931L187.666 163.937L208.551 150.993L207.207 149.657L185.877 161.931Z" fill="#263238" stroke="#263238" stroke-linejoin="round"/>
<path d="M216.257 136.091L218.175 138.671L222.865 137.049L221.906 134.749L216.257 136.091Z" fill="white" stroke="#263238" stroke-linejoin="round"/>
<path d="M166.909 117.279C166.909 117.279 157.621 117.413 152.864 117.279C148.107 117.144 134.813 114.497 133.75 116.486C132.688 118.474 134.941 123.909 141.451 126.032C147.96 128.155 162.158 130.143 162.158 130.143C162.158 130.143 167.996 137.463 171.318 141.813C174.64 146.162 180.741 156.27 181.272 157.197C181.803 158.124 184.191 163.828 187.379 162.632C190.567 161.436 207.952 150.7 207.952 149.901C207.952 149.102 207.952 148.071 207.427 147.382C206.902 146.693 200.655 139.031 199.592 137.012C198.53 134.993 194.707 125.215 194.707 125.215L203.067 123.226C203.067 123.226 212.893 134.096 214.749 135.823C216.605 137.549 218.199 136.884 218.199 136.884C218.199 136.884 222.584 136.085 222.712 134.761C222.84 133.437 208.111 110.892 206.652 110.099C205.192 109.306 195.366 112.618 191.385 113.277C187.403 113.936 182.622 114.204 177.046 115.534C173.709 116.337 170.323 116.92 166.909 117.279Z" fill="white" stroke="#263238" stroke-linejoin="round"/>
<path d="M194.64 125.239L181.364 128.948" stroke="#263238" stroke-linejoin="round"/>
<path d="M188.661 126.959L184.02 130.674" stroke="#263238" stroke-linejoin="round"/>
<path d="M150.837 124.958L148.84 124.043" stroke="#263238" stroke-linejoin="round"/>
<path d="M152.821 123.781L162.116 130.143L152.284 125.629" stroke="#263238" stroke-linejoin="round"/>
<path d="M184.478 144.253C189.15 145.223 197.302 146.65 204.178 146.498" stroke="#263238" stroke-linejoin="round"/>
<path d="M180.649 143.387C180.649 143.387 181.449 143.588 182.811 143.893" stroke="#263238" stroke-linejoin="round"/>
<path d="M195.067 144.57C195.067 144.57 200.6 145.717 204.294 145.717" stroke="#263238" stroke-linejoin="round"/>
<path d="M166.738 124.281L168.747 130.997L171.361 124.08L166.738 124.281Z" fill="#04B600" stroke="#263238" stroke-linejoin="round"/>
<path d="M167.343 119.218L164.693 122.134L169.26 125.788L171.819 121.225L167.343 119.218Z" fill="white" stroke="#263238" stroke-linejoin="round"/>
<path d="M164.693 122.134L165.975 127.52L167.801 124.599L164.693 122.134Z" fill="white" stroke="#263238" stroke-linejoin="round"/>
<path d="M156.198 98.5943C156.198 98.5943 154.366 103.066 154.464 104.249C154.562 105.432 155.472 106.164 155.38 107.537C155.288 108.909 152.455 111.459 153.096 112.1C153.737 112.74 156.107 113.741 156.107 113.741C156.107 113.741 158.665 119.035 159.581 119.231C160.497 119.426 165.425 116.949 165.425 116.949L169.26 125.794L176.845 114.576L174.286 109.556C174.286 109.556 176.478 103.901 174.378 99.247C172.277 94.5927 165.609 94.3182 162.409 94.8672C159.209 95.4162 156.839 96.7704 156.198 98.5943Z" fill="white" stroke="#263238" stroke-miterlimit="10"/>
<path d="M162.323 97.6C161.58 97.4425 160.812 97.451 160.073 97.625C159.334 97.799 158.643 98.1342 158.049 98.6065C155.771 100.247 153.847 102.071 152.937 100.436C152.027 98.8017 154.855 96.0567 154.855 96.0567C154.855 96.0567 152.571 95.4162 153.487 92.7749C154.403 90.1336 157.762 89.5785 157.762 90.4935C157.762 91.4085 157.487 92.1344 160.045 90.8595C162.604 89.5846 163.972 89.2125 164.522 90.6765C165.071 92.1405 168.357 91.2865 172.1 93.4093C175.843 95.5321 176.759 96.8802 175.935 101.626C175.111 106.372 174.933 108.647 174.292 109.556C173.651 110.465 171.367 110.739 170.366 110.379C169.364 110.02 169.908 109.007 169.908 109.007C169.908 109.007 172.558 106.36 171.367 104.261C170.176 102.163 168.448 103.078 167.899 104.261C167.349 105.445 167.624 106.451 166.799 106.451C165.975 106.451 165.248 105.841 165.065 104.536C164.882 103.23 164.247 102.096 163.697 101.888C163.148 101.681 161.78 102.895 161.865 100.796C161.897 99.5859 162.348 98.424 163.142 97.5085L162.323 97.6Z" fill="#263238" stroke="#263238" stroke-miterlimit="10"/>
<path d="M156.204 106.622C156.181 106.041 156.372 105.471 156.741 105.021C157.11 104.571 157.632 104.273 158.207 104.182" stroke="#263238" stroke-miterlimit="10"/>
<path d="M158.36 107.525C158.537 108.019 158.482 108.495 158.244 108.58C158.006 108.665 157.676 108.324 157.499 107.824C157.322 107.323 157.377 106.854 157.615 106.768C157.853 106.683 158.189 107.024 158.36 107.525Z" fill="#263238"/>
<path d="M176.662 111.642L168.717 121.768L170.176 127.154L179.495 114.198L176.662 111.642Z" fill="white" stroke="#263238" stroke-linejoin="round"/>
<path d="M168.741 130.997C168.88 131.455 169.139 131.867 169.493 132.189C169.847 132.512 170.281 132.732 170.75 132.827C172.356 133.126 175.166 131.925 176.57 128.313C177.975 124.702 180.887 114.778 182.591 112.368C184.295 109.959 189.919 109.867 192.832 110.062C195.745 110.257 197.748 107.458 200.459 106.152C202.047 105.381 203.738 104.841 205.479 104.548L208.899 97.6L201.772 97.3987C201.772 97.3987 194.744 100.711 192.936 102.815C191.128 104.92 189.828 104.645 186.011 105.42C182.194 106.195 180.094 107.83 178.585 112.441C177.077 117.053 175.074 128.686 172.863 130.29C172.298 130.758 171.62 131.069 170.897 131.193C170.174 131.318 169.43 131.25 168.741 130.997Z" fill="#04B600" stroke="#263238" stroke-linejoin="round"/>
<path d="M144.064 123.44C144.889 124.3 145.011 125.52 144.333 126.178C143.655 126.837 142.428 126.673 141.603 125.819C140.779 124.965 140.657 123.738 141.335 123.08C142.012 122.421 143.234 122.61 144.064 123.44Z" fill="white" stroke="#263238" stroke-linejoin="round"/>
<path d="M143.411 125.105L142.086 123.702C142.086 123.702 139.362 116.614 135.729 114.717C132.095 112.819 127.723 115.705 126.813 118.425C125.903 121.146 129.127 125.684 132.51 127.087C135.227 128.104 138.015 128.919 140.852 129.527C140.852 129.527 142.422 125.849 143.411 125.105Z" fill="white" stroke="#263238" stroke-linejoin="round"/>
<path d="M138.703 128.899L138.843 129.082C140.034 129.381 140.852 129.558 140.852 129.558C140.852 129.558 142.422 125.849 143.411 125.105L142.086 123.702C142.086 123.702 138.287 124.361 138.703 128.899Z" fill="#263238" stroke="#263238" stroke-linejoin="round"/>
<path d="M151.746 136.073C152.228 136.763 152.782 137.399 153.401 137.97C154.061 138.47 154.305 139.043 153.481 138.964C152.483 138.94 151.535 138.524 150.843 137.805C150.012 136.902 149.438 136.158 149.438 136.158L151.746 136.073Z" fill="white" stroke="#263238" stroke-linejoin="round"/>
<path d="M152.162 133.59C152.162 133.59 153.316 135.487 152.907 135.981C152.498 136.475 148.693 136.64 148.113 136.475C147.533 136.311 147.948 135.566 147.948 135.566L152.162 133.59Z" fill="white" stroke="#263238" stroke-linejoin="round"/>
<path d="M152.076 131.376C152.076 131.376 152.986 132.779 152.821 133.352C152.656 133.925 148.779 135.664 147.936 135.579C147.093 135.493 147.197 134.84 147.197 134.84L152.076 131.376Z" fill="white" stroke="#263238" stroke-linejoin="round"/>
<path d="M150.513 129.723C150.513 129.723 151.997 129.558 152.162 130.631C152.327 131.705 151.417 132.034 150.843 132.529C150.269 133.023 147.789 134.84 147.209 134.84C146.629 134.84 145.554 133.187 145.554 133.187L150.513 129.723Z" fill="white" stroke="#263238" stroke-linejoin="round"/>
<path d="M143.411 125.105C143.411 125.105 147.453 126.593 149.353 127.087C151.252 127.581 151.337 129.149 150.513 129.723C149.689 130.296 147.124 133.437 146.379 133.602C145.634 133.767 144.547 132.943 144.547 132.943C144.547 132.943 142.232 131.784 141.903 130.882C141.701 130.335 141.326 129.87 140.834 129.558C140.834 129.558 140.602 126.178 143.411 125.105Z" fill="white" stroke="#263238" stroke-linejoin="round"/>
<path d="M144.565 132.943C144.565 132.943 143.906 131.376 144.486 130.961C145.066 130.546 145.97 131.455 145.97 131.455C146.101 130.977 146.325 130.529 146.629 130.137" stroke="#263238" stroke-linejoin="round"/>
<path d="M218.205 138.671C218.424 139.854 218.561 141.05 218.614 142.252C218.547 143.088 217.088 146.565 217.015 146.772C216.941 146.979 217.503 147.815 217.711 148.09C217.918 148.364 218.895 148.23 219.659 148.852C220.422 149.474 221.326 151.012 222.443 150.682C223.561 150.353 224.275 148.852 224.275 148.852C224.275 148.852 226.846 147.327 226.913 146.565C226.949 145.625 226.831 144.685 226.565 143.783C226.358 143.173 222.901 137.073 222.901 137.073L218.205 138.671Z" fill="white" stroke="#263238" stroke-linejoin="round"/>
<path d="M218.932 146.144C218.932 146.144 220.251 146.351 220.813 148.37" stroke="#263238" stroke-linejoin="round"/>
<path d="M219.628 147.187L216.636 148.718L219.421 153.927" stroke="#263238" stroke-width="3" stroke-linecap="round" stroke-linejoin="round"/>
<path d="M226.932 144.686L227.762 144.338L230.547 149.895" stroke="#263238" stroke-width="3" stroke-linejoin="round"/>
<path d="M240.851 144.319L210.922 157.661C209.755 158.181 209.231 159.548 209.752 160.714L217.783 178.69C218.304 179.856 219.672 180.38 220.839 179.859L250.769 166.517C251.936 165.997 252.46 164.63 251.939 163.464L243.908 145.488C243.387 144.322 242.019 143.798 240.851 144.319Z" fill="#04B600" stroke="#263238" stroke-linejoin="round"/>
</g>
<defs>
<clipPath id="clip0_15_215">
<rect width="458" height="305" fill="white" transform="translate(-34)"/>
</clipPath>
</defs>
</svg>
